<svg width="1920" height="575" viewBox="0 0 1920 575" fill="none" xmlns="http://www.w3.org/2000/svg">
<g clip-path="url(#clip0_153_20819)">
<path d="M1818.52 471.54V486.75H1850.34V572.09H1867.95V486.75H1899.92V471.54H1818.53H1818.52ZM1698.97 471.54V572.08H1715.72V498.15H1716.14L1761.91 572.08H1780.5V471.54H1763.74V545.61H1763.46L1717.55 471.54H1698.96H1698.97ZM1584.2 471.54V572.08H1657.57V556.87H1601.8V527.44H1652.5V513.08H1601.8V486.75H1656.58V471.54H1584.2ZM1431.98 471.54V572.08H1448.73V494.49H1449.01L1476.89 572.08H1491.39L1519.27 494.49H1519.55V572.08H1536.31V471.54H1511.8L1484.76 550.26H1484.48L1456.74 471.54H1431.96H1431.98ZM1316.79 471.54V572.08H1390.16V556.87H1334.39V527.44H1385.09V513.08H1334.39V486.75H1389.17V471.54H1316.79ZM1226.67 469.15C1196.68 469.15 1178.51 493.23 1178.51 521.82C1178.51 550.41 1196.67 574.48 1226.67 574.48C1239.76 574.48 1248.36 570.11 1256.95 560.26L1259.62 572.09H1270.89V519.14H1228.08V532.52H1254.83C1254.41 549.7 1244.98 560.12 1227.23 560.12C1205.12 560.12 1196.11 541.53 1196.11 521.82C1196.11 502.11 1204.84 483.52 1226.67 483.52C1238.64 483.52 1250.61 489.71 1252.58 503.52H1269.76C1266.95 480.57 1248.22 469.16 1226.67 469.16M1098.8 488.86L1113.87 532.09H1083.17L1098.38 488.86H1098.8ZM1089.37 471.54L1050.79 572.08H1068.95L1078.39 545.47H1118.53L1127.97 572.08H1146.84L1108.12 471.54H1089.39H1089.37ZM933.34 471.54V572.08H950.1V498.15H950.52L996.28 572.08H1014.87V471.54H998.11V545.61H997.83L951.93 471.54H933.34ZM849.7 488.86L864.77 532.09H834.07L849.28 488.86H849.7ZM840.27 471.54L801.69 572.08H819.85L829.29 545.47H869.43L878.86 572.08H897.73L859.01 471.54H840.28H840.27ZM661.15 471.54V572.08H677.9V494.49H678.18L706.06 572.08H720.56L748.44 494.49H748.72V572.08H765.48V471.54H740.98L713.94 550.26H713.66L685.92 471.54H661.14H661.15ZM475.69 471.54V486.75H507.51V572.09H525.12V486.75H557.09V471.54H475.7H475.69ZM369.8 471.54V572.08H443.17V556.87H387.4V527.44H438.1V513.08H387.4V486.75H442.18V471.54H369.8ZM286.29 469.15C268.27 469.15 249.53 478.31 249.53 498.72C249.53 511.82 256.85 520.55 272.77 524.49C291.5 529.28 296.15 530.41 301.78 532.52C306.99 534.49 310.09 538.3 310.09 544.91C310.09 553.78 302.35 560.12 288.83 560.12C273.48 560.12 263.48 552.94 263.34 538.58H245.74C246.16 561.67 262.49 574.49 287.7 574.49C311.36 574.49 327.69 562.8 327.69 542.95C327.69 527.32 315.86 519.29 306.71 516.9L280.09 509.86C271.5 507.6 267.13 503.24 267.13 496.62C267.13 487.89 275.02 483.52 285.58 483.52C299.1 483.52 306.14 489.3 307.27 501.12V501.26H324.87C324.73 480.99 308.12 469.15 286.29 469.15ZM168.29 469.15C150.27 469.15 131.53 478.31 131.53 498.72C131.53 511.82 138.85 520.55 154.77 524.49C173.5 529.28 178.14 530.41 183.78 532.52C188.99 534.49 192.09 538.3 192.09 544.91C192.09 553.78 184.35 560.12 170.83 560.12C155.48 560.12 145.48 552.94 145.34 538.58H127.73C128.15 561.67 144.49 574.49 169.69 574.49C193.35 574.49 209.69 562.8 209.69 542.95C209.69 527.32 197.86 519.29 188.71 516.9L162.09 509.86C153.5 507.6 149.13 503.24 149.13 496.62C149.13 487.89 157.02 483.52 167.58 483.52C181.1 483.52 188.14 489.3 189.27 501.12V501.26H206.87C206.73 480.99 190.11 469.15 168.29 469.15ZM49.44 488.86L64.51 532.09H33.81L49.02 488.86H49.44ZM40 471.54L1.42004 572.08H19.58L29.02 545.47H69.15L78.59 572.08H97.46L58.74 471.54H40.01H40Z" fill="black"/>
<path d="M74.41 35.61V220.37C74.41 290.97 74.14 321.7 82.79 330.35C90.47 338.03 124.36 341.39 161.82 341.39C193.19 341.39 252 343.15 263.46 325.95C274.93 308.75 275.37 292.28 280.66 292.28C285.95 292.28 283.89 296.4 283.01 301.25C282.13 306.1 274.63 349.32 273.9 352.85C273.16 356.38 270.37 360.11 261.85 360.11C220.55 360.11 28.27 358.67 10.5 358.67C5.22 358.67 2.82 357.71 2.82 354.83C2.82 353.39 3.78 351.95 6.66 351.95C10.98 351.95 16.75 350.99 21.07 350.03C30.68 348.11 33.07 337.55 35 323.62C37.4 303.45 37.4 265.51 37.4 219.41V134.89C37.4 59.97 36.44 50.93 36.44 35.54C36.44 1.95 12.96 6.72 3.84 6.72C1.92 6.72 0 5.76 0 3.84C0 0.96 2.4 0 7.68 0C29.29 0 55.16 1.44 57.56 1.44C59.96 1.44 87.07 0 101.48 0C106.76 0 109.16 0.96 109.16 3.84C109.16 5.76 107.24 6.72 105.32 6.72C72.44 6.72 74.4 23.84 74.4 35.61H74.41Z" fill="black"/>
<path d="M826.41 341.32C870.37 341.32 885 336.93 892.81 321.29C897.69 312.5 898.67 305.66 900.14 298.33C901.12 294.42 902.1 291.49 904.05 291.49C906.98 291.49 907.47 293.93 907.47 298.82C907.47 312.5 901.61 339.37 898.68 349.62C895.26 360.86 894.77 361.35 884.03 361.35C812.22 361.35 745.33 359.39 668.63 359.39C663.26 359.39 660.81 358.9 660.81 355.97C660.81 353.53 661.79 351.58 666.67 344.25C730.67 249.97 817.03 160.08 876.14 65.31H770.85C744.47 65.31 736.25 65.31 721.11 70.68C705.97 76.05 689.32 95.59 686.88 107.32C685.41 113.67 683.95 115.14 681.99 115.14C680.03 115.14 679.55 112.7 679.55 109.28C679.55 103.91 685.46 67.79 687.41 55.09C688.39 48.74 689.37 46.79 692.29 46.79C696.69 46.79 698.26 48.51 710.96 49C757.37 50.47 906.31 48.23 906.31 48.23C912.66 48.23 916.08 48.23 916.08 51.16C916.08 53.12 915.1 55.56 912.66 58.98C848.18 156.19 778.04 246.57 713.07 341.34H826.41V341.32Z" fill="black"/>
<path d="M1317.53 167.79C1317.53 103.31 1317.53 91.58 1316.55 78.39C1315.57 65.2 1312.16 57.87 1297.01 54.94C1294.08 54.45 1289.19 53.96 1285.28 53.96C1281.86 53.96 1279.91 52.98 1279.91 51.03C1279.91 49.08 1281.38 47.61 1285.77 47.61C1306.78 47.61 1336.58 49.08 1337.55 49.08C1341.94 49.08 1375.16 47.61 1388.84 47.61C1416.2 47.61 1446 50.05 1468.96 66.17C1478.24 73.01 1498.27 92.55 1498.27 125.77C1498.27 152.64 1485.08 186.83 1446.49 218.1C1482.15 262.07 1511.46 298.22 1536.37 324.11C1559.82 348.05 1574.48 351.95 1588.15 353.91C1591.57 354.4 1601.83 354.89 1603.29 354.89C1607.2 354.89 1608.67 356.35 1608.67 358.31C1608.67 360.75 1606.71 361.73 1599.87 361.73H1565.67C1542.71 361.73 1539.91 360.26 1529.16 355.87C1508.64 347.08 1493.99 325.09 1468.59 292.36C1449.54 268.91 1430 242.53 1421.69 232.27C1419.73 230.32 1418.76 229.34 1415.83 229.34L1349.62 228.85C1347.66 228.85 1347.18 229.34 1347.18 231.29V238.13C1347.18 277.21 1347.18 312.87 1349.62 330.46C1351.09 342.18 1352.55 351.95 1368.67 353.91C1373.55 354.4 1378.93 354.89 1382.84 354.89C1387.23 354.89 1389.19 356.35 1389.19 357.82C1389.19 360.26 1387.23 361.73 1382.35 361.73C1356.95 361.73 1337.54 360.26 1335.58 360.26C1327.76 360.26 1306.27 361.73 1293.08 361.73C1288.2 361.73 1286.24 360.75 1286.24 357.82C1286.24 356.35 1289.17 354.89 1292.11 354.89C1295.53 354.89 1298.95 354.89 1302.85 353.91C1311.15 352.44 1314.09 347.07 1315.55 335.35C1317.99 317.76 1317.51 277.71 1317.51 241.07V167.8L1317.53 167.79ZM1349.92 202.47C1349.92 204.91 1350.46 207.36 1352.64 208.33C1359.71 211.75 1381.48 214.68 1401.06 214.68C1412.48 214.68 1426.08 214.19 1437.51 207.35C1453.83 198.07 1464.71 176.57 1464.71 145.31C1464.71 92.06 1433.16 62.75 1384.74 62.75C1371.14 62.75 1359.72 63.73 1353.19 65.19C1351.56 65.68 1349.92 67.15 1349.92 69.58V202.45V202.47Z" fill="black"/>
<path d="M466.87 39.92C466.56 39.17 465.51 39.24 465.23 40L361.04 312.87C352.81 333.39 344.58 349.51 323.77 351.46C320.86 351.95 316.51 351.95 314.09 351.95C310.22 351.95 308.28 353.41 308.28 355.37C308.28 357.81 310.7 358.79 316.03 358.79C336.36 358.79 357.66 357.32 362.5 357.32C367.82 357.32 390.09 358.79 400.74 358.79C404.13 358.79 408 357.81 408 355.37C408 353.41 406.55 351.95 402.19 351.95H398.8C388.15 351.95 380.5 348.04 380.5 339.25C380.5 331.43 384.58 318.71 389.42 305.03L413.72 233.46H512.52L551.63 340.23C554.53 347.56 551.63 350 549.69 350.98C547.75 351.47 546.3 352.94 546.3 354.4C546.3 356.84 549.21 357.33 558.4 357.82C590.83 358.8 622.92 358.8 627.76 358.8C633.09 358.8 635.02 357.82 635.02 355.38C635.02 352.94 632.6 351.96 629.21 351.96C625.82 351.96 619.05 351.96 612.75 349.52C605.97 347.08 591.94 340.73 575.96 302.13C551.11 242.99 477.62 65.66 466.87 39.93V39.92ZM418.98 217.9L461.22 93.47L506.8 217.9H418.98Z" fill="black"/>
<path d="M1091.61 39.92C1091.3 39.17 1090.25 39.24 1089.97 40L985.78 312.87C977.55 333.39 969.32 349.51 948.51 351.46C945.6 351.95 941.25 351.95 938.83 351.95C934.96 351.95 933.02 353.41 933.02 355.37C933.02 357.81 935.44 358.79 940.77 358.79C961.1 358.79 982.4 357.32 987.24 357.32C992.56 357.32 1014.83 358.79 1025.48 358.79C1028.87 358.79 1032.74 357.81 1032.74 355.37C1032.74 353.41 1031.29 351.95 1026.93 351.95H1023.54C1012.89 351.95 1005.24 348.04 1005.24 339.25C1005.24 331.43 1009.32 318.71 1014.16 305.03L1038.46 233.46H1137.26L1176.37 340.23C1179.27 347.56 1176.37 350 1174.43 350.98C1172.49 351.47 1171.04 352.94 1171.04 354.4C1171.04 356.84 1173.95 357.33 1183.14 357.82C1215.57 358.8 1247.66 358.8 1252.5 358.8C1257.83 358.8 1259.76 357.82 1259.76 355.38C1259.76 352.94 1257.34 351.96 1253.95 351.96C1250.56 351.96 1243.79 351.96 1237.49 349.52C1230.71 347.08 1216.68 340.73 1200.7 302.13C1175.85 242.99 1102.36 65.66 1091.61 39.93V39.92ZM1043.73 217.9L1085.97 93.47L1131.55 217.9H1043.73Z" fill="black"/>
<path d="M1881.17 95.49C1837.49 43.22 1771.02 48.84 1734.75 48.84C1711.68 48.84 1689.14 49.08 1686.25 49.08C1685.02 49.08 1655.06 47.61 1638.17 47.61C1634.46 47.61 1631.99 48.59 1631.99 51.52C1631.99 52.98 1634.05 54.45 1636.11 54.45C1639.41 54.45 1649.58 54.94 1652.04 55.43C1663.99 58.36 1669.7 66.02 1670.52 79.21C1671.34 91.91 1668.94 103.31 1668.94 167.79V240.09C1668.94 279.66 1672.04 312.88 1669.57 330.95C1668.34 341.69 1662.15 349.16 1655.08 350.27C1648.36 351.32 1638.96 351.27 1635.66 351.27C1632.36 351.27 1630.51 356.84 1630.51 358.31C1630.51 360.75 1632.57 360.27 1636.28 360.27H1715.51C1734.6 360.27 1751.2 359.34 1766.86 359.34C1829.49 359.34 1860.14 331.41 1878.59 312C1900.43 289.03 1919.99 245.55 1919.99 200.53C1919.99 151.19 1899.3 117 1881.16 95.5L1881.17 95.49ZM1749.04 344.83C1706.15 344.83 1703.49 338.7 1703.49 331.76V75.01C1703.49 61.33 1731.88 63.16 1749.04 63.16C1766.2 63.16 1879.56 69.08 1883.44 202.26C1887.32 335.43 1791.93 344.83 1749.04 344.83Z" fill="black"/>
</g>
<defs>
<clipPath id="clip0_153_20819">
<rect width="1920" height="574.48" fill="white"/>
</clipPath>
</defs>
</svg>
